<?xml version="1.0" encoding="utf-8"?>
<!-- Generator: Adobe Illustrator 16.0.0, SVG Export Plug-In . SVG Version: 6.00 Build 0)  -->
<!DOCTYPE svg PUBLIC "-//W3C//DTD SVG 1.1//EN" "http://www.w3.org/Graphics/SVG/1.1/DTD/svg11.dtd">
<svg version="1.1" xmlns="http://www.w3.org/2000/svg" xmlns:xlink="http://www.w3.org/1999/xlink" x="0px" y="0px" width="255px"
	 height="255px" viewBox="0 0 255 255" enable-background="new 0 0 255 255" xml:space="preserve">
<g id="Circle">
	<circle fill="#00933C" cx="127.5" cy="127.5" r="127.5"/>
</g>
<g id="Outlined">
	<g>
		<path fill="#FFFFFF" d="M105.808,159.471c1.104,6.055,3.214,10.727,6.332,14.014c3.118,3.288,7.665,4.932,13.641,4.932
			c6.885,0,12.129-2.425,15.732-7.275c3.604-4.85,5.408-10.953,5.408-18.311c0-7.227-1.689-13.33-5.066-18.311
			c-3.378-4.98-8.639-7.471-15.783-7.471c-3.378,0-6.301,0.424-8.768,1.27c-4.352,1.563-7.633,4.46-9.841,8.691l-24.949-1.172
			l9.937-78.223h77.908v23.633H112.53l-5.067,30.957c4.291-2.798,7.639-4.654,10.045-5.566c4.031-1.497,8.94-2.246,14.727-2.246
			c11.702,0,21.908,3.94,30.621,11.816c8.713,7.878,13.069,19.336,13.069,34.375c0,13.086-4.196,24.772-12.586,35.059
			c-8.391,10.287-20.942,15.43-37.656,15.43c-13.465,0-24.521-3.613-33.172-10.84c-8.649-7.227-13.463-17.48-14.438-30.762H105.808z
			"/>
	</g>
</g>
<g id="Text_1_" display="none">
	
		<text id="_x35__1_" transform="matrix(1 0 0 1 72.7998 197.3613)" display="inline" font-family="'Helvetica-Bold'" font-size="200">5</text>
</g>
</svg>
