<?xml version="1.0" encoding="utf-8"?>
<!-- Generator: Adobe Illustrator 16.0.0, SVG Export Plug-In . SVG Version: 6.00 Build 0)  -->
<!DOCTYPE svg PUBLIC "-//W3C//DTD SVG 1.1//EN" "http://www.w3.org/Graphics/SVG/1.1/DTD/svg11.dtd">
<svg version="1.1" xmlns="http://www.w3.org/2000/svg" xmlns:xlink="http://www.w3.org/1999/xlink" x="0px" y="0px" width="255px"
	 height="255px" viewBox="0 0 255 255" enable-background="new 0 0 255 255" xml:space="preserve">
<g id="Circle">
	<circle fill="#00933C" cx="127.5" cy="127.5" r="127.5"/>
</g>
<g id="Outlined">
	<g>
		<path fill="#FFFFFF" d="M146.14,91.404c0-2.278-0.879-4.785-2.637-7.52c-2.995-4.427-7.52-6.641-13.574-6.641
			c-9.05,0-15.495,5.078-19.336,15.234c-2.084,5.6-3.516,13.867-4.297,24.805c3.45-4.102,7.454-7.095,12.012-8.984
			c4.557-1.888,9.766-2.832,15.625-2.832c12.564,0,22.867,4.265,30.908,12.793c8.04,8.53,12.061,19.434,12.061,32.715
			c0,13.217-3.939,24.87-11.816,34.961c-7.878,10.092-20.117,15.137-36.719,15.137c-17.839,0-30.99-7.454-39.453-22.363
			c-6.576-11.653-9.863-26.692-9.863-45.117c0-10.806,0.455-19.595,1.367-26.367c1.627-12.044,4.785-22.07,9.473-30.078
			c4.036-6.836,9.326-12.337,15.869-16.504c6.543-4.166,14.371-6.25,23.486-6.25c13.15,0,23.633,3.369,31.445,10.107
			s12.207,15.708,13.184,26.904H146.14z M113.132,171.189c4.102,4.818,9.31,7.227,15.625,7.227c6.185,0,11.051-2.327,14.6-6.982
			c3.548-4.654,5.322-10.693,5.322-18.115c0-8.268-2.019-14.6-6.055-18.994c-4.037-4.395-8.984-6.592-14.844-6.592
			c-4.753,0-8.952,1.433-12.598,4.297c-5.469,4.232-8.203,11.068-8.203,20.508C106.979,160.154,109.03,166.372,113.132,171.189z"/>
	</g>
</g>
<g id="Text_1_" display="none">
	<text id="_x36_" transform="matrix(1 0 0 1 72.7998 197.3613)" display="inline" font-family="'Helvetica-Bold'" font-size="200">6</text>
</g>
</svg>
