<?xml version="1.0" encoding="utf-8"?>
<!-- Generator: Adobe Illustrator 16.0.0, SVG Export Plug-In . SVG Version: 6.00 Build 0)  -->
<!DOCTYPE svg PUBLIC "-//W3C//DTD SVG 1.1//EN" "http://www.w3.org/Graphics/SVG/1.1/DTD/svg11.dtd">
<svg version="1.1" xmlns="http://www.w3.org/2000/svg" xmlns:xlink="http://www.w3.org/1999/xlink" x="0px" y="0px" width="255px"
	 height="255px" viewBox="0 0 255 255" enable-background="new 0 0 255 255" xml:space="preserve">
<g id="Circle">
	<circle fill="#FCCC0A" cx="127.5" cy="127.5" r="127.5"/>
</g>
<g id="Outlined">
	<g>
		<path d="M191.484,154.375c-2.531,8.256-6.262,15.111-11.193,20.568l16.525,15.564l-15.684,16.367l-17.289-16.406
			c-5.279,3.203-9.84,5.457-13.684,6.766c-6.451,2.156-14.174,3.234-23.167,3.234c-18.767,0-34.275-5.598-46.525-16.797
			c-14.857-13.477-22.285-33.268-22.285-59.375c0-26.302,7.617-46.191,22.852-59.668c12.435-11.001,27.896-16.504,46.387-16.504
			c18.62,0,34.245,5.827,46.875,17.48c14.582,13.477,21.875,32.324,21.875,56.543C196.172,134.975,194.609,145.717,191.484,154.375z
			 M136.91,173.709c1.758-0.457,4.006-1.271,6.742-2.447l-14.57-13.859l15.451-16.133l14.631,13.777
			c2.277-4.686,3.871-8.787,4.783-12.303c1.43-5.273,2.146-11.424,2.146-18.455c0-16.144-3.305-28.625-9.912-37.445
			c-6.609-8.82-16.26-13.231-28.956-13.231c-11.914,0-21.42,4.233-28.516,12.695c-7.097,8.464-10.645,21.127-10.645,37.988
			c0,19.726,5.08,33.855,15.24,42.382c6.577,5.535,14.458,8.301,23.641,8.301C130.398,174.98,133.719,174.557,136.91,173.709z"/>
	</g>
</g>
<g id="Text_1_" display="none">
	<text id="Q" transform="matrix(1 0 0 1 72.7998 197.3613)" display="inline" font-family="'Helvetica-Bold'" font-size="200">Q</text>
</g>
</svg>
