<?xml version="1.0" encoding="utf-8"?>
<!-- Generator: Adobe Illustrator 16.0.0, SVG Export Plug-In . SVG Version: 6.00 Build 0)  -->
<!DOCTYPE svg PUBLIC "-//W3C//DTD SVG 1.1//EN" "http://www.w3.org/Graphics/SVG/1.1/DTD/svg11.dtd">
<svg version="1.1" xmlns="http://www.w3.org/2000/svg" xmlns:xlink="http://www.w3.org/1999/xlink" x="0px" y="0px" width="255px"
	 height="255px" viewBox="0 0 255 255" enable-background="new 0 0 255 255" xml:space="preserve">
<g id="Circle">
	<circle fill="#FCCC0A" cx="127.5" cy="127.5" r="127.5"/>
</g>
<g id="Outlined">
	<g>
		<path d="M160.419,59.238c5.302,2.28,9.794,5.632,13.476,10.059c3.047,3.647,5.459,7.683,7.237,12.109
			c1.777,4.428,2.667,9.473,2.667,15.137c0,6.836-1.726,13.559-5.176,20.166c-3.451,6.608-9.147,11.279-17.09,14.014
			c6.641,2.67,11.344,6.462,14.111,11.377c2.767,4.916,4.15,12.419,4.15,22.51v9.668c0,6.576,0.264,11.035,0.793,13.379
			c0.794,3.711,2.645,6.445,5.555,8.203v3.613h-33.203c-0.912-3.189-1.563-5.762-1.953-7.715c-0.781-4.036-1.205-8.17-1.27-12.402
			l-0.195-13.379c-0.124-9.18-1.709-15.299-4.758-18.359c-3.049-3.06-8.762-4.59-17.136-4.59H98.252v56.445H68.857V55.527h68.851
			C147.547,55.723,155.118,56.96,160.419,59.238z M98.252,80.527v38.672h32.37c6.43,0,11.252-0.781,14.468-2.344
			c5.689-2.734,8.533-8.138,8.533-16.211c0-8.724-2.753-14.583-8.255-17.578c-3.092-1.692-7.729-2.539-13.911-2.539H98.252z"/>
	</g>
</g>
<g id="Text_1_" display="none">
	<text id="R" transform="matrix(1 0 0 1 72.7998 197.3613)" display="inline" font-family="'Helvetica-Bold'" font-size="200">R</text>
</g>
</svg>
